<svg xmlns="http://www.w3.org/2000/svg" width="127" height="30" fill="none" viewBox="0 0 127 30"><path fill="#000" d="M126.062 15a6.555 6.555 0 0 1-4.051 6.063 6.56 6.56 0 0 1-7.152-1.422l-.038-.041-7.026-7.934a4.685 4.685 0 0 0-7.196.736 4.685 4.685 0 0 0 2.095 6.923 4.685 4.685 0 0 0 5.101-.991l.999-1.127a.93.93 0 0 1 .645-.316.939.939 0 0 1 .761 1.559l-1.018 1.15-.039.04a6.563 6.563 0 1 1 0-9.28l.039.04 7.025 7.934a4.688 4.688 0 1 0 0-6.668l-.998 1.127a.94.94 0 0 1-1.407-1.243l1.019-1.15.038-.04a6.566 6.566 0 0 1 10.098.994A6.56 6.56 0 0 1 126.062 15M3.636 20.74q0 .48-.1.74a.95.95 0 0 1-.22.4.45.45 0 0 1-.3.16q-.16.04-.32.04-.54 0-.72-.24-.16-.24-.22-1.08-.04-.44-.06-1.28t-.04-2q0-1.16-.02-2.56v-2.96q0-.74.18-1.5t.68-1.38q.52-.62 1.42-1 .92-.38 2.38-.38 1.02 0 1.94.22t1.62.76 1.12 1.44.42 2.24q0 1.4-.46 2.32t-1.3 1.46-2 .76-2.54.22h-.68q-.34 0-.76-.04zm5.76-8.42q0-1.34-.76-2.02-.74-.68-2.48-.68-.66 0-1.14.12a1.6 1.6 0 0 0-.76.38 1.64 1.64 0 0 0-.46.72q-.14.46-.14 1.16v1.56q0 .86.02 1.62.459.02 1.02.02h1.08q.6 0 1.24-.08.66-.08 1.18-.36.52-.3.86-.86.34-.58.34-1.58m11.827 9.76q-.32 0-.52-.1a.86.86 0 0 1-.28-.3 1.3 1.3 0 0 1-.14-.42 7 7 0 0 1-.06-.54q-.5.62-1.3 1.04-.78.42-2 .42a6.2 6.2 0 0 1-1.6-.22 4 4 0 0 1-1.46-.8q-.66-.58-1.08-1.54t-.42-2.42q0-1.14.28-2.14a5.2 5.2 0 0 1 .84-1.74 4.2 4.2 0 0 1 1.44-1.2q.86-.44 2.02-.44 1.02 0 1.82.38.8.36 1.44 1.2 0-.24.02-.48a1.6 1.6 0 0 1 .1-.46.75.75 0 0 1 .3-.34q.2-.14.54-.14.3 0 .56.24t.3 1.04q.06 1.06.08 1.9.04.84.04 1.74 0 1.1-.02 2.02a36 36 0 0 1-.1 1.96 4 4 0 0 1-.12.74q-.06.26-.16.4a.5.5 0 0 1-.24.16q-.14.04-.28.04M20.143 17q0-1.04-.32-1.7-.3-.66-.78-1.02a2.6 2.6 0 0 0-1-.52 4 4 0 0 0-1-.14q-.72 0-1.24.26a2.25 2.25 0 0 0-.82.72 3.1 3.1 0 0 0-.48 1.06q-.14.6-.14 1.32 0 1.76.76 2.6.78.84 2.1.84.78 0 1.32-.26.56-.28.9-.74.36-.46.52-1.08.18-.64.18-1.34m4.445 3.78a19 19 0 0 1-.1-1.7 123 123 0 0 1-.02-2.42V14.4q.02-.86.12-1.52.099-.82.3-1.06a.73.73 0 0 1 .56-.24q.24 0 .42.04a.65.65 0 0 1 .34.18q.159.12.24.36t.08.66q0 .08.02.16v.18q.02.08.02.2.54-.68 1.22-1.16.7-.48 1.58-.48 1.18 0 1.18.98 0 .36-.16.6-.141.24-.42.4a2.4 2.4 0 0 1-.62.22q-.34.08-.76.16-.64.12-1.2.46-.56.32-.76.82v.56q.02.18.02.3.02.12.02.26v.44q0 1.02-.04 1.92-.04.88-.08 1.92-.021.48-.12.74a.95.95 0 0 1-.22.4.43.43 0 0 1-.28.16q-.16.04-.32.04-.56 0-.76-.24-.18-.26-.26-1.08m7.519.16a21 21 0 0 1-.06-1.32q-.02-.9-.04-2.06-.02-1.18-.02-2.56v-2.82q0-1.7.02-2.78t.12-1.7.32-.84q.22-.24.64-.24.36 0 .52.24.159.22.24 1 .039.48.06 1.3.04.8.04 1.76.02.96.02 2 .02 1.04.02 1.98v1.62l4.44-4.02q.22-.2.52-.38.32-.2.66-.2.399 0 .6.32.2.3.2.7 0 .22-.08.42-.06.18-.28.34l-2.7 2.22 3.28 4.76q.18.24.18.54 0 .44-.28.66t-.72.22q-.32 0-.56-.12t-.46-.46l-3-4.34-1.82 1.5a174 174 0 0 1-.04 1.32q-.021.58-.06.92-.08.7-.26.92t-.64.22-.64-.22q-.16-.22-.22-.9m18.366-.18q-.04-1.08-.08-2.26-.02-1.2-.02-2.76-.64.02-1.36.04h-3.12q-.74 0-1.32-.02l-.04 2.44q-.02 1.16-.08 2.54a3 3 0 0 1-.1.74.9.9 0 0 1-.18.4.43.43 0 0 1-.28.16 1.3 1.3 0 0 1-.34.04q-.36 0-.6-.24-.24-.26-.28-1.08a51 51 0 0 1-.06-1.5q0-.78-.02-1.68t-.02-1.94v-2.36q0-1.42.02-2.42.02-1.02.1-1.66.1-.64.3-.94t.56-.3q.34 0 .6.22t.3 1.02q.04.68.06 1.24l.04 1.08q.02.52.02 1.08v1.24q1.5-.06 2.94-.06.7 0 1.4.02.72.02 1.46.06v-.58q0-1.42.02-2.42.02-1.02.1-1.66.1-.64.3-.94t.56-.3q.34 0 .6.22t.3 1.02q.04.72.06 1.28l.04 1.12q.02.54.02 1.14v3.04q0 .82-.02 1.62l-.04 1.62a86 86 0 0 1-.06 1.72 3 3 0 0 1-.1.74.9.9 0 0 1-.18.4.43.43 0 0 1-.28.16 1.3 1.3 0 0 1-.34.04q-.36 0-.6-.24-.24-.26-.28-1.08m6.667 4.9q-.26.46-.5.68a.7.7 0 0 1-.52.22q-.28 0-.56-.18a.56.56 0 0 1-.28-.5q0-.3.2-.86.22-.56.52-1.22l1.28-2.64.14-.3q-.6-1.18-1.24-2.52-.62-1.34-1.14-2.54t-.86-2.08q-.32-.9-.32-1.18a.57.57 0 0 1 .2-.44.77.77 0 0 1 .54-.2q.28 0 .54.12.26.1.48.48.32.6.66 1.38.36.76.7 1.6.36.84.72 1.7.38.86.76 1.66.44-.82.94-1.72t.96-1.74l.88-1.54q.4-.72.68-1.2.28-.46.56-.66t.58-.2q.2 0 .4.18.2.16.2.44 0 .42-.38 1.36-.36.92-.94 2.14a70 70 0 0 1-1.32 2.62q-.72 1.38-1.44 2.72-.72 1.32-1.38 2.48-.64 1.16-1.06 1.94m9.772-12.72q.04.52.02 1.26 0 .74.02 1.56.04.8.14 1.62a6.3 6.3 0 0 0 .34 1.44q.26.64.7 1.04.46.4 1.18.4t1.16-.4a2.5 2.5 0 0 0 .7-1.04q.26-.64.36-1.44.099-.82.12-1.62a21 21 0 0 0 .02-1.56q0-.74.04-1.26.08-1.24 1.02-1.24.36 0 .56.2t.28.56q.099.36.12.86t.02 1.12q0 1.28-.14 2.66a8.7 8.7 0 0 1-.58 2.5 4.54 4.54 0 0 1-1.32 1.88q-.88.74-2.36.74t-2.36-.74a4.7 4.7 0 0 1-1.34-1.88 9.7 9.7 0 0 1-.58-2.5 31 31 0 0 1-.1-3.78q.02-.5.1-.86.099-.36.3-.56t.56-.2q.939 0 1.02 1.24m13.799.54q-.74 0-1.34.24-.58.24-1.32.72v1.24q0 .8-.02 1.76l-.04 1.86q-.02.92-.08 1.54-.04.4-.1.64a.7.7 0 0 1-.14.34.4.4 0 0 1-.24.16 3 3 0 0 1-.38.02q-.24 0-.4-.02a.55.55 0 0 1-.24-.14.9.9 0 0 1-.16-.34 4 4 0 0 1-.1-.6q-.04-.36-.08-.96-.02-.6-.04-1.3l-.04-1.44v-1.36q0-1.02.02-1.66.04-.64.12-1.14.12-.84.32-1.06a.7.7 0 0 1 .54-.22q.5 0 .74.28.26.28.32.92a6.5 6.5 0 0 1 1.58-1.02 4.3 4.3 0 0 1 1.76-.38q.86 0 1.56.4.72.4 1.18 1.3.28.54.42 1.2.14.64.2 1.36l.04.64q.02.3.02.66.02.34.02.78v1.04q0 .64-.02 1.2a5 5 0 0 1-.12.98q-.08.4-.3.64-.22.22-.6.22-.92 0-.96-.88v-.5q0-.46-.02-1.06 0-.6-.02-1.22 0-.62-.02-1.02-.02-.32-.06-.68a7 7 0 0 0-.08-.76 6 6 0 0 0-.12-.72 3.6 3.6 0 0 0-.2-.64q-.28-.66-.7-.84a2.3 2.3 0 0 0-.9-.18m11.293-5.6q.56 0 1.28.1.74.08 1.38.32.64.22 1.08.6.44.36.44.9 0 .32-.18.54t-.58.22q-.3 0-.62-.12-.3-.12-.7-.24a8 8 0 0 0-.9-.26 5 5 0 0 0-1.18-.12q-1.32 0-1.96.48-.62.46-.62 1.28 0 .56.28.94t.74.66q.48.26 1.06.44.6.18 1.22.34.7.18 1.38.44.7.26 1.24.68t.86 1.06q.34.64.34 1.62 0 1.02-.38 1.84-.38.8-1.04 1.38-.66.56-1.58.88-.92.3-2 .3-.6 0-1.4-.12a7 7 0 0 1-1.52-.36 4 4 0 0 1-1.22-.72q-.5-.46-.5-1.12 0-.4.2-.64.22-.24.64-.24.34 0 .56.14.22.12.38.28.6.52 1.36.7t1.56.18q.46 0 .96-.06.52-.08.94-.3t.7-.62q.28-.42.28-1.12 0-.64-.26-1.04-.24-.42-.66-.7a3.9 3.9 0 0 0-1-.46q-.56-.18-1.22-.36-.74-.2-1.46-.44a4.8 4.8 0 0 1-1.28-.64 3.45 3.45 0 0 1-.92-1.04q-.34-.64-.34-1.62t.36-1.72.98-1.24 1.46-.76a6.3 6.3 0 0 1 1.84-.26"/></svg>